<?xml version="1.0" standalone="no"?>
<!DOCTYPE svg PUBLIC "-//W3C//DTD SVG 20010904//EN"
 "http://www.w3.org/TR/2001/REC-SVG-20010904/DTD/svg10.dtd">
<svg version="1.0" xmlns="http://www.w3.org/2000/svg"
 width="260.000000pt" height="260.000000pt" viewBox="0 0 260.000000 260.000000"
 preserveAspectRatio="xMidYMid meet">
<metadata>
Created by potrace 1.11, written by Peter Selinger 2001-2013
</metadata>
<g transform="translate(0.000000,260.000000) scale(0.100000,-0.100000)"
fill="#000000" stroke="none">
<path d="M1070 2564 c-301 -37 -578 -170 -781 -373 -65 -66 -155 -178 -148
-185 2 -2 76 -16 164 -31 88 -15 165 -29 172 -32 6 -2 14 -28 18 -56 9 -74 33
-258 55 -422 11 -77 22 -167 26 -200 7 -57 8 -58 15 -25 4 19 17 100 29 180
12 80 30 197 40 260 10 63 22 139 25 168 l7 54 42 -4 c22 -2 103 -15 179 -28
l137 -24 0 -573 c0 -315 -1 -573 -2 -573 -2 -1 -50 -9 -108 -19 -58 -10 -109
-16 -114 -13 -5 3 -7 154 -3 370 4 201 5 363 2 361 -4 -4 -36 -187 -96 -539
-17 -102 -35 -194 -39 -206 -7 -18 -24 -23 -116 -38 -59 -9 -108 -15 -110 -14
-1 2 -36 179 -79 393 -75 381 -101 491 -90 375 3 -30 8 -222 12 -426 l6 -371
-24 -6 c-13 -3 -45 -9 -71 -12 -27 -4 -48 -10 -48 -14 0 -17 115 -144 182
-202 246 -212 520 -314 843 -314 209 0 359 33 540 119 431 204 706 615 732
1096 14 251 -63 528 -209 752 -76 116 -245 287 -354 358 -209 137 -428 206
-674 214 -69 2 -141 2 -160 0z m185 -754 c61 -11 171 -30 245 -43 l135 -22 3
-124 3 -123 -68 4 -68 3 -3 -362 c-1 -200 -3 -363 -5 -363 -1 -1 -46 -9 -100
-19 -53 -9 -99 -15 -102 -13 -3 3 -5 180 -5 393 l0 387 -85 7 -85 7 0 144 c0
109 3 144 13 144 6 0 62 -9 122 -20z m598 -106 c60 -8 58 -6 86 -194 12 -80
37 -246 56 -369 19 -123 35 -234 35 -247 0 -19 -8 -23 -57 -32 -32 -6 -59 -9
-61 -7 -2 2 -7 25 -10 52 -8 52 -5 51 -89 37 -29 -4 -32 -8 -38 -52 -4 -26 -8
-52 -10 -58 -3 -10 -152 -41 -159 -33 -2 2 11 90 29 194 18 105 51 303 74 440
51 303 47 288 74 282 12 -3 44 -9 70 -13z"/>
<path d="M1821 1287 c-7 -67 -14 -128 -17 -134 -2 -9 8 -13 31 -13 22 0 35 5
35 13 -1 28 -29 249 -32 253 -3 2 -10 -51 -17 -119z"/>
</g>
</svg>
